<?xml version="1.0" encoding="utf-8"?>
<!DOCTYPE svg PUBLIC "-//W3C//DTD SVG 1.1//EN" "http://www.w3.org/Graphics/SVG/1.1/DTD/svg11.dtd">
<svg version="1.1" id="Layer_1" xmlns="http://www.w3.org/2000/svg" xmlns:xlink="http://www.w3.org/1999/xlink" x="0px" y="0px"
	 viewBox="0 0 48 48" enable-background="new 0 0 48 48" xml:space="preserve">
<g>
	<path fill="#FFFFFF" d="M24.7,22.6c2.4,0,4.4-2,4.4-4.4s-2-4.4-4.4-4.4c-2.4,0-4.4,2-4.4,4.4S22.3,22.6,24.7,22.6z"/>
	<path fill="#FFFFFF" d="M13.2,26.9c-1.4,0-2.6-0.7-3.5-1.8c-0.1-0.1-0.2-0.1-0.3,0c-1.6,1.2-2.6,3.1-2.6,5.1c0,0,0,3.2,0,3.4
		c0,0.1,0.1,0.2,0.2,0.2H15c0-1.8,0-3.7,0-3.7c0-1.4,0.3-2.8,0.9-4.1C15.1,26.6,14.2,26.9,13.2,26.9z"/>
	<path fill="#FFFFFF" d="M39.8,25.2c-0.1-0.1-0.2,0-0.3,0c-0.8,1.1-2.1,1.8-3.5,1.8c-0.9,0-1.8-0.3-2.5-0.8c0.6,1.2,0.9,2.6,0.9,4
		c0,0,0,2,0,3.7h7.8c0.1,0,0.2-0.1,0.2-0.2c0-0.2,0-3.3,0-3.4C42.5,28.3,41.5,26.3,39.8,25.2z"/>
	<path fill="#FFFFFF" d="M29.6,23.4c-0.1-0.1-0.2,0-0.3,0c-1.1,1.5-2.8,2.3-4.6,2.3c-1.8,0-3.5-0.9-4.6-2.3c-0.1-0.1-0.2-0.1-0.3,0
		c-2.1,1.5-3.4,4-3.4,6.7c0,0.1,0,6.1,0,6.3c0,0.1,0.1,0.2,0.2,0.2h16.1c0.1,0,0.2-0.1,0.2-0.2c0-0.3,0-6.3,0-6.3
		C33,27.5,31.7,25,29.6,23.4z"/>
	<path fill="#FFFFFF" d="M13.2,24c1.9,0,3.4-1.5,3.4-3.4c0-1.9-1.5-3.4-3.4-3.4s-3.4,1.5-3.4,3.4C9.8,22.4,11.3,24,13.2,24z"/>
	<path fill="#FFFFFF" d="M36.1,24c1.9,0,3.4-1.5,3.4-3.4c0-1.9-1.5-3.4-3.4-3.4c-1.9,0-3.4,1.5-3.4,3.4C32.7,22.4,34.2,24,36.1,24z"
		/>
</g>
</svg>
