<?xml version="1.0" encoding="utf-8"?>
<!DOCTYPE svg PUBLIC "-//W3C//DTD SVG 1.1//EN" "http://www.w3.org/Graphics/SVG/1.1/DTD/svg11.dtd">
<svg version="1.1" id="Layer_1" xmlns="http://www.w3.org/2000/svg" xmlns:xlink="http://www.w3.org/1999/xlink" x="0px" y="0px"
	 viewBox="0 0 100 100" enable-background="new 0 0 100 100" xml:space="preserve">
<path fill="#FFFFFF" d="M72.9,27.3c0.7-6.9,0.8-11.9,0.8-11.9H26.3c0,0,0.1,4.9,0.8,11.9c-5,0-14.1,0-14.1,0v2.2
	c0,27.4,19.9,34.3,26.5,35.9c2.3,2.5,5.1,4.2,8.3,4.7v5.4c0,5.2-11.1,9.6-15.6,9.6C31,85,30,86,30,87.3c0,1.2,1,2.2,2.2,2.2H50h17.8
	c1.2,0,2.2-1,2.2-2.2c0-1.2-1-2.2-2.2-2.2c-4.4,0-15.6-4.4-15.6-9.6V70c3.2-0.5,6-2.2,8.3-4.7C67.2,63.8,87,56.9,87,29.5v-2.2
	C87,27.3,76.8,27.3,72.9,27.3z M17.5,31.7h10.1c1.2,9,3.4,19.8,7.7,27.7C28.3,56.5,18.2,49.3,17.5,31.7z M54.2,34.7l2.6,8.1l-6.9-5
	l-6.9,5l2.6-8.1l-6.9-5h8.5l2.6-8.1l2.6,8.1h8.5L54.2,34.7z M64.7,59.4c4.3-7.9,6.5-18.8,7.7-27.7h10.1
	C81.8,49.3,71.7,56.5,64.7,59.4z"/>
</svg>
