<?xml version="1.0" encoding="utf-8"?>
<!DOCTYPE svg PUBLIC "-//W3C//DTD SVG 1.1//EN" "http://www.w3.org/Graphics/SVG/1.1/DTD/svg11.dtd">
<svg version="1.1" id="Layer_1" xmlns="http://www.w3.org/2000/svg" xmlns:xlink="http://www.w3.org/1999/xlink" x="0px" y="0px"
	 viewBox="0 0 100 100" enable-background="new 0 0 100 100" xml:space="preserve">
<path fill="#FFFFFF" d="M81,13.3H19c-3.1,0-5.7,2.6-5.7,5.7V81c0,3.1,2.6,5.7,5.7,5.7h31.5h14.6H81c3.1,0,5.7-2.6,5.7-5.7V19
	C86.7,15.9,84.1,13.3,81,13.3z M54.3,83v-27h-9.1v-6.7h9.1v-9.7c0-3.8,1.1-6.9,3.2-9c2-2,5-3,8.5-3c2.5,0,4.6,0.1,6.3,0.2v5.9
	l-3.8,0c-7.1,0-7.1,5.2-7.1,7v8.6h10.2l-0.9,6.7h-9.4v27H54.3z M83,81c0,1.1-0.9,2-2,2H65V59.6h8.9l1.8-14.1H65v-4.9
	c0-1.3,0.2-2.1,0.6-2.5c0.4-0.5,1.4-0.8,2.9-0.8l7.5,0V24.5l-1.6-0.2c-0.8-0.1-4.2-0.4-8.4-0.4c-4.5,0-8.3,1.4-11.1,4.1
	c-2.8,2.8-4.3,6.8-4.3,11.6v6h-9.1v14.1h9.1V83H19c-1.1,0-2-0.9-2-2V19c0-1.1,0.9-2,2-2H81c1.1,0,2,0.9,2,2V81z"/>
</svg>
