<?xml version="1.0" encoding="UTF-8" standalone="no"?>
<svg
   xmlns:dc="http://purl.org/dc/elements/1.1/"
   xmlns:cc="http://creativecommons.org/ns#"
   xmlns:rdf="http://www.w3.org/1999/02/22-rdf-syntax-ns#"
   xmlns:svg="http://www.w3.org/2000/svg"
   xmlns="http://www.w3.org/2000/svg"
   xmlns:sodipodi="http://sodipodi.sourceforge.net/DTD/sodipodi-0.dtd"
   xmlns:inkscape="http://www.inkscape.org/namespaces/inkscape"
   version="1.1"
   id="Layer_1"
   x="0px"
   y="0px"
   viewBox="0 0 60 60"
   enable-background="new 0 0 60 60"
   xml:space="preserve"
   inkscape:version="0.91 r13725"
   sodipodi:docname="icon_student.svg"><metadata
     id="metadata13"><rdf:RDF><cc:Work
         rdf:about=""><dc:format>image/svg+xml</dc:format><dc:type
           rdf:resource="http://purl.org/dc/dcmitype/StillImage" /><dc:title></dc:title></cc:Work></rdf:RDF></metadata><defs
     id="defs11" /><sodipodi:namedview
     pagecolor="#ffffff"
     bordercolor="#666666"
     borderopacity="1"
     objecttolerance="10"
     gridtolerance="10"
     guidetolerance="10"
     inkscape:pageopacity="0"
     inkscape:pageshadow="2"
     inkscape:window-width="1408"
     inkscape:window-height="1062"
     id="namedview9"
     showgrid="false"
     inkscape:zoom="5.2375"
     inkscape:cx="62.847376"
     inkscape:cy="-21.763114"
     inkscape:window-x="0"
     inkscape:window-y="18"
     inkscape:window-maximized="0"
     inkscape:current-layer="Layer_1" /><g
     id="g3341"
     transform="matrix(1.0024158,0,0,1.0024158,-0.02270211,-1.4758561)"><path
       style="fill:#ffffff"
       inkscape:connector-curvature="0"
       id="path3"
       d="m 29.2504,42.749074 -0.310934,-0.155467 -14.613876,-6.685071 0,6.063204 c 0,2.642935 6.685071,6.685071 14.92481,6.685071 8.239738,0 14.924809,-4.042136 14.924809,-6.685071 l 0,-6.063204 -14.924809,6.840538 z" /><polygon
       style="fill:#ffffff"
       transform="matrix(1.5546677,0,0,1.5546677,-16.612297,-17.416565)"
       id="polygon5"
       points="10.7,28.9 29.5,37.4 48.2,28.9 29.5,20.3 " /><path
       style="fill:#ffffff"
       inkscape:connector-curvature="0"
       id="path7"
       d="m 57.856285,38.240538 0,0 c 0.621867,-0.466401 1.088267,-1.243734 1.088267,-2.021068 0,-1.088268 -0.777334,-2.021068 -1.865601,-2.176535 l 0,-6.374137 -0.621867,0 0,6.21867 c -1.088268,0.310934 -1.865601,1.088268 -1.865601,2.176535 0,0.777334 0.310933,1.399201 0.9328,1.865601 l 0,0.310934 -2.176534,8.861606 3.264802,0 3.264802,0 -2.021068,-8.861606 z" /></g></svg>
