<svg xmlns:dc="http://purl.org/dc/elements/1.1/" xmlns:cc="http://creativecommons.org/ns#" xmlns:rdf="http://www.w3.org/1999/02/22-rdf-syntax-ns#" xmlns:svg="http://www.w3.org/2000/svg" xmlns="http://www.w3.org/2000/svg" xmlns:sodipodi="http://sodipodi.sourceforge.net/DTD/sodipodi-0.dtd" xmlns:inkscape="http://www.inkscape.org/namespaces/inkscape" version="1.1" x="0px" y="0px" viewBox="0 0 200 200" enable-background="new 0 0 2480 1080" xml:space="preserve" inkscape:version="0.91 r13725" width="200" height="200"><style>.style0{fill:	none;stroke:	#3e77a3;stroke-miterlimit:	10;stroke-miterlimit:	10;}</style><metadata><rdf:RDF><cc:Work rdf:about=""><dc:format>image/svg+xml</dc:format><dc:type rdf:resource="http://purl.org/dc/dcmitype/StillImage"/><dc:title/></cc:Work></rdf:RDF></metadata><defs/><g transform="matrix(0.22069325,0,0,0.22069325,-169.20162,-9.48592)"><polygon points="1672.4,496.1 1611.8,722.4 1446.1,888.1 1219.8,948.7 993.5,888.1 827.8,722.4 767.2,496.1 827.8,269.8 993.5,104.1 1219.8,43.5 1446.1,104.1 1611.8,269.8" class="style0"/><line y2="496.1" x2="1672.5" y1="496.1" x1="1511.2" class="style0"/><line y2="495.8" x2="928.6" y1="495.8" x1="767.2" class="style0"/><line y2="746.7" x2="1074.6" y1="886.4" x1="993.9" class="style0"/><line y2="104.8" x2="1445.3" y1="244.5" x1="1364.6" class="style0"/><line y2="104.8" x2="996.6" y1="244.5" x1="1077.2" class="style0"/><line y2="746.7" x2="1364.6" y1="886.4" x1="1445.3" class="style0"/><line y2="888.1" x2="993.5" y1="495.8" x1="928.6" class="style0"/><line y2="497" x2="1510.2" y1="104.8" x1="1445.3" class="style0"/><line y2="495.8" x2="928.6" y1="104.1" x1="993.5" class="style0"/><line y2="244.5" x2="1364.6" y1="104.1" x1="993.5" class="style0"/><line y2="496.1" x2="1672.5" y1="244.5" x1="1364.6" class="style0"/><line y2="746.7" x2="1364.6" y1="496.1" x1="1672.5" class="style0"/><line y2="495.8" x2="767.2" y1="746.7" x1="1074.6" class="style0"/><line y2="244.5" x2="1077.2" y1="495.8" x1="767.2" class="style0"/><line y2="244.5" x2="1077.2" y1="104.1" x1="1446.1" class="style0"/><line y2="886.4" x2="1445.3" y1="746.7" x1="1074.6" class="style0"/><line y2="497" x2="1510.2" y1="886.4" x1="1445.3" class="style0"/><line y2="746.7" x2="1364.6" y1="888.1" x1="993.5" class="style0"/><line y2="948.7" x2="1219.8" y1="722.4" x1="827.8" class="style0"/><line y2="722.4" x2="1611.8" y1="948.7" x1="1219.8" class="style0"/><line y2="269.8" x2="1611.8" y1="722.4" x1="1611.8" class="style0"/><line y2="43.5" x2="1219.8" y1="269.8" x1="1611.8" class="style0"/><line y2="269.8" x2="827.8" y1="43.5" x1="1219.8" class="style0"/><line y2="722.4" x2="827.8" y1="269.8" x1="827.8" class="style0"/></g></svg>